<svg width="32" height="32" viewBox="0 0 32 32" fill="none" xmlns="http://www.w3.org/2000/svg">
<rect width="32" height="32" rx="4" fill="url(#gradient0_linear_1_1)"/>
<path d="M16 8C13.2386 8 11 10.2386 11 13V17C11 19.7614 13.2386 22 16 22C18.7614 22 21 19.7614 21 17V13C21 10.2386 18.7614 8 16 8Z" fill="white" fill-opacity="0.9"/>
<path d="M16 10.6667C14.5272 10.6667 13.3333 11.8606 13.3333 13.3333V16H18.6667V13.3333C18.6667 11.8606 17.4728 10.6667 16 10.6667Z" fill="white"/>
<circle cx="14.6667" cy="12.6667" r="0.666667" fill="#0891b2"/>
<circle cx="17.3333" cy="12.6667" r="0.666667" fill="#0891b2"/>
<circle cx="16" cy="18.6667" r="1.33333" fill="#ef4444"/>
<defs>
<linearGradient id="gradient0_linear_1_1" x1="0" y1="0" x2="32" y2="32" gradientUnits="userSpaceOnUse">
<stop stop-color="#0891b2"/>
<stop offset="1" stop-color="#155e75"/>
</linearGradient>
</defs>
</svg>



